0
SECTION
2
HEADER
9
$INSUNITS
70
4
9
$ACADVER
1
AC1014
9
$HANDSEED
5
FFFF
0
ENDSEC
0
SECTION
2
TABLES
0
TABLE
2
VPORT
5
8
100
AcDbSymbolTable
0
ENDTAB
0
TABLE
2
LTYPE
5
5
100
AcDbSymbolTable
0
LTYPE
5
14
100
AcDbSymbolTableRecord
100
AcDbLinetypeTableRecord
2
BYBLOCK
70
0
0
LTYPE
5
15
100
AcDbSymbolTableRecord
100
AcDbLinetypeTableRecord
2
BYLAYER
70
0
0
LTYPE
5
16
100
AcDbSymbolTableRecord
100
AcDbLinetypeTableRecord
2
DASHED
70
0
3
Dashed __ __ __ __ __ __ __ __ __ __ __ __ __ _
72
65
73
2
40
0.75
49
0.5
74
0
49
-0.25
74
0
0
ENDTAB
0
TABLE
2
LAYER
5
2
100
AcDbSymbolTable
70
3
0
LAYER
5
50
100
AcDbSymbolTableRecord
100
AcDbLayerTableRecord
2
1
70
0
62
7
6
DASHED
0
LAYER
5
51
100
AcDbSymbolTableRecord
100
AcDbLayerTableRecord
2
0
70
0
62
7
6
CONTINUOUS
0
ENDTAB
0
TABLE
2
STYLE
5
3
100
AcDbSymbolTable
70
1
0
STYLE
5
11
100
AcDbSymbolTableRecord
100
AcDbTextStyleTableRecord
2
STANDARD
70
0
0
ENDTAB
0
TABLE
2
VIEW
5
6
100
AcDbSymbolTable
70
0
0
ENDTAB
0
TABLE
2
UCS
5
7
100
AcDbSymbolTable
70
0
0
ENDTAB
0
TABLE
2
APPID
5
9
100
AcDbSymbolTable
70
2
0
APPID
5
12
100
AcDbSymbolTableRecord
100
AcDbRegAppTableRecord
2
ACAD
70
0
0
ENDTAB
0
TABLE
2
DIMSTYLE
5
A
100
AcDbSymbolTable
70
1
0
ENDTAB
0
TABLE
2
BLOCK_RECORD
5
1
100
AcDbSymbolTable
70
1
0
BLOCK_RECORD
5
1F
100
AcDbSymbolTableRecord
100
AcDbBlockTableRecord
2
*MODEL_SPACE
0
BLOCK_RECORD
5
1B
100
AcDbSymbolTableRecord
100
AcDbBlockTableRecord
2
*PAPER_SPACE
0
ENDTAB
0
ENDSEC
0
SECTION
2
BLOCKS
0
BLOCK
5
20
100
AcDbEntity
100
AcDbBlockBegin
2
*MODEL_SPACE
0
ENDBLK
5
21
100
AcDbEntity
100
AcDbBlockEnd
0
BLOCK
5
1C
100
AcDbEntity
100
AcDbBlockBegin
2
*PAPER_SPACE
0
ENDBLK
5
1D
100
AcDbEntity
100
AcDbBlockEnd
0
ENDSEC
0
SECTION
2
ENTITIES
0
LWPOLYLINE
5
100
100
AcDbEntity
8
0
100
AcDbPolyline
90
4
70
1
43
0.0
10
122.58343833970223
20
-256.89968480430144
10
67.289543155215171
20
-256.89968480430144
10
67.289543155215171
20
-163.09183372541776
10
122.58343833970223
20
-163.09183372541776
0
LWPOLYLINE
5
101
100
AcDbEntity
8
0
100
AcDbPolyline
90
4
70
1
43
0.0
10
122.58343833970223
20
-104.60175962853276
10
67.289543155215171
20
-104.60175962853276
10
67.289543155215171
20
-86.751161071626342
10
122.58343833970223
20
-86.751161071626342
0
LWPOLYLINE
5
102
100
AcDbEntity
8
0
100
AcDbPolyline
90
4
70
1
43
0.0
10
122.58343833970223
20
-151.74539858640452
10
67.289543155215171
20
-151.74539858640452
10
67.289543155215171
20
-115.30895898506627
10
122.58343833970223
20
-115.30895898506627
0
LWPOLYLINE
5
103
100
AcDbEntity
8
0
100
AcDbPolyline
90
4
70
1
43
0.0
10
255.86415201695564
20
-163.09183372541776
10
255.86415201695564
20
-256.8996848043015
10
200.73001274783562
20
-256.8996848043015
10
200.73001274783562
20
-163.09183372541776
0
LWPOLYLINE
5
104
100
AcDbEntity
8
0
100
AcDbPolyline
90
4
70
1
43
0.0
10
189.06395971758261
20
-163.09183372541776
10
189.06395971758261
20
-256.89968480430144
10
134.24949136995531
20
-256.89968480430144
10
134.24949136995531
20
-163.09183372541776
0
LWPOLYLINE
5
105
100
AcDbEntity
8
0
100
AcDbPolyline
90
4
70
1
43
0.0
10
189.06395971758261
20
-115.30895898506627
10
189.06395971758261
20
-151.74539858640452
10
134.24949136995531
20
-151.74539858640452
10
134.24949136995531
20
-115.30895898506627
0
LWPOLYLINE
5
106
100
AcDbEntity
8
0
100
AcDbPolyline
90
4
70
1
43
0.0
10
189.06395971758261
20
-104.60175962853276
10
134.24949136995525
20
-104.60175962853276
10
134.24949136995525
20
-86.751161071626342
10
189.06395971758261
20
-86.751161071626342
0
LWPOLYLINE
5
107
100
AcDbEntity
8
0
100
AcDbPolyline
90
4
70
1
43
0.0
10
255.86415201695564
20
-115.30895898506627
10
255.86415201695564
20
-151.74539858640452
10
200.73001274783562
20
-151.74539858640452
10
200.73001274783562
20
-115.30895898506627
0
LWPOLYLINE
5
108
100
AcDbEntity
8
0
100
AcDbPolyline
90
4
70
1
43
0.0
10
255.86415201695564
20
-104.60175962853276
10
200.73001274783562
20
-104.60175962853276
10
200.73001274783562
20
-86.751161071626356
10
255.86415201695564
20
-86.751161071626342
0
LWPOLYLINE
5
109
100
AcDbEntity
8
0
100
AcDbPolyline
90
4
70
1
43
0.0
10
267.53015201695564
20
-104.60175962853276
10
267.53015201695564
20
-86.751161071626356
10
284.72267162352421
20
-86.751161071626342
10
284.72267162352421
20
-104.60175962853276
0
LWPOLYLINE
5
110
100
AcDbEntity
8
0
100
AcDbPolyline
90
4
70
1
43
0.0
10
267.53015201695564
20
-151.74539858640452
10
267.53015201695564
20
-115.30895898506627
10
284.72267162352421
20
-115.30895898506627
10
284.72267162352421
20
-151.74539858640452
0
LWPOLYLINE
5
111
100
AcDbEntity
8
0
100
AcDbPolyline
90
4
70
1
43
0.0
10
284.72267162352421
20
-163.09183372541776
10
284.72267162352421
20
-256.8996848043015
10
267.53015201695564
20
-256.8996848043015
10
267.53015201695564
20
-163.09183372541776
0
LWPOLYLINE
5
112
100
AcDbEntity
8
0
100
AcDbPolyline
90
4
70
1
43
0.0
10
314.69069605201327
20
-256.89968480430144
10
314.69069605201327
20
-220.00000000000006
10
333.00000496208668
20
-220.00000000000003
10
333.00000496208668
20
-256.8996848043015
0
LWPOLYLINE
5
113
100
AcDbEntity
8
0
100
AcDbPolyline
90
4
70
1
43
0.0
10
395.60632007147683
20
-66.751208725010457
10
46.985342023346988
20
-66.751208725010457
10
46.985342023346995
20
-277.03519973825746
10
395.60632007147683
20
-277.03519973825746
0
LWPOLYLINE
5
114
100
AcDbEntity
8
0
100
AcDbPolyline
90
4
70
1
43
0.0
10
351.42984846740524
20
-115.30895898506627
10
351.42984846740524
20
-151.74539858640452
10
296.3886716235242
20
-151.74539858640452
10
296.3886716235242
20
-115.30895898506627
0
LWPOLYLINE
5
115
100
AcDbEntity
8
0
100
AcDbPolyline
90
4
70
1
43
0.0
10
351.42984846740524
20
-104.60175962853276
10
296.3886716235242
20
-104.60175962853276
10
296.3886716235242
20
-86.751161071626356
10
351.42984846740524
20
-86.751161071626342
0
CIRCLE
5
116
100
AcDbEntity
8
0
100
AcDbCircle
10
391.10633597842593
20
-242.03521304339873
30
0
40
1.9999999999999574
210
0
220
0
230
1
0
CIRCLE
5
117
100
AcDbEntity
8
0
100
AcDbCircle
10
51.485335978425979
20
-101.75121304339875
30
0
40
1.999999999999984
210
0
220
0
230
1
0
CIRCLE
5
118
100
AcDbEntity
8
0
100
AcDbCircle
10
391.10633597842593
20
-171.75121304339876
30
0
40
1.9999999999999574
210
0
220
0
230
1
0
CIRCLE
5
119
100
AcDbEntity
8
0
100
AcDbCircle
10
51.485335978425994
20
-242.03521304339873
30
0
40
1.999999999999984
210
0
220
0
230
1
0
CIRCLE
5
120
100
AcDbEntity
8
0
100
AcDbCircle
10
51.485335978425979
20
-171.75121304339876
30
0
40
1.999999999999984
210
0
220
0
230
1
0
CIRCLE
5
121
100
AcDbEntity
8
0
100
AcDbCircle
10
391.10633597842593
20
-101.75121304339875
30
0
40
1.9999999999999574
210
0
220
0
230
1
0
CIRCLE
5
122
100
AcDbEntity
8
0
100
AcDbCircle
10
391.10633597842593
20
-242.03521304339873
30
0
40
1.9999999999999574
210
0
220
-0
230
1
0
CIRCLE
5
123
100
AcDbEntity
8
0
100
AcDbCircle
10
51.485335978425979
20
-101.75121304339875
30
0
40
1.999999999999984
210
0
220
-0
230
1
0
CIRCLE
5
124
100
AcDbEntity
8
0
100
AcDbCircle
10
391.10633597842593
20
-171.75121304339876
30
0
40
1.9999999999999574
210
0
220
-0
230
1
0
CIRCLE
5
125
100
AcDbEntity
8
0
100
AcDbCircle
10
51.485335978425994
20
-242.03521304339873
30
0
40
1.999999999999984
210
0
220
-0
230
1
0
CIRCLE
5
126
100
AcDbEntity
8
0
100
AcDbCircle
10
51.485335978425979
20
-171.75121304339876
30
0
40
1.999999999999984
210
0
220
-0
230
1
0
CIRCLE
5
127
100
AcDbEntity
8
0
100
AcDbCircle
10
391.10633597842593
20
-101.75121304339875
30
0
40
1.9999999999999574
210
0
220
-0
230
1
0
LWPOLYLINE
5
128
100
AcDbEntity
8
0
100
AcDbPolyline
90
4
70
1
43
0.0
10
122.58343833970223
20
-256.89968480430144
10
67.289543155215171
20
-256.89968480430144
10
67.289543155215171
20
-163.09183372541776
10
122.58343833970223
20
-163.09183372541776
0
LWPOLYLINE
5
129
100
AcDbEntity
8
0
100
AcDbPolyline
90
4
70
1
43
0.0
10
122.58343833970223
20
-104.60175962853276
10
67.289543155215171
20
-104.60175962853276
10
67.289543155215171
20
-86.751161071626342
10
122.58343833970223
20
-86.751161071626342
0
LWPOLYLINE
5
130
100
AcDbEntity
8
0
100
AcDbPolyline
90
4
70
1
43
0.0
10
122.58343833970223
20
-151.74539858640452
10
67.289543155215171
20
-151.74539858640452
10
67.289543155215171
20
-115.30895898506627
10
122.58343833970223
20
-115.30895898506627
0
LWPOLYLINE
5
131
100
AcDbEntity
8
0
100
AcDbPolyline
90
4
70
1
43
0.0
10
255.86415201695564
20
-163.09183372541776
10
255.86415201695564
20
-256.8996848043015
10
200.73001274783562
20
-256.8996848043015
10
200.73001274783562
20
-163.09183372541776
0
LWPOLYLINE
5
132
100
AcDbEntity
8
0
100
AcDbPolyline
90
4
70
1
43
0.0
10
189.06395971758261
20
-163.09183372541776
10
189.06395971758261
20
-256.89968480430144
10
134.24949136995528
20
-256.89968480430144
10
134.24949136995531
20
-163.09183372541776
0
LWPOLYLINE
5
133
100
AcDbEntity
8
0
100
AcDbPolyline
90
4
70
1
43
0.0
10
189.06395971758261
20
-115.30895898506627
10
189.06395971758261
20
-151.74539858640452
10
134.24949136995531
20
-151.74539858640452
10
134.24949136995531
20
-115.30895898506627
0
LWPOLYLINE
5
134
100
AcDbEntity
8
0
100
AcDbPolyline
90
4
70
1
43
0.0
10
189.06395971758261
20
-104.60175962853276
10
134.24949136995525
20
-104.60175962853273
10
134.24949136995525
20
-86.751161071626342
10
189.06395971758261
20
-86.751161071626356
0
LWPOLYLINE
5
135
100
AcDbEntity
8
0
100
AcDbPolyline
90
4
70
1
43
0.0
10
255.86415201695564
20
-115.30895898506627
10
255.86415201695564
20
-151.74539858640452
10
200.73001274783562
20
-151.74539858640452
10
200.73001274783562
20
-115.30895898506627
0
LWPOLYLINE
5
136
100
AcDbEntity
8
0
100
AcDbPolyline
90
4
70
1
43
0.0
10
255.86415201695564
20
-104.60175962853276
10
200.73001274783562
20
-104.60175962853276
10
200.73001274783562
20
-86.751161071626356
10
255.86415201695564
20
-86.751161071626342
0
LWPOLYLINE
5
137
100
AcDbEntity
8
0
100
AcDbPolyline
90
4
70
1
43
0.0
10
267.53015201695564
20
-104.60175962853276
10
267.53015201695564
20
-86.751161071626356
10
284.72267162352421
20
-86.751161071626342
10
284.72267162352421
20
-104.60175962853276
0
LWPOLYLINE
5
138
100
AcDbEntity
8
0
100
AcDbPolyline
90
4
70
1
43
0.0
10
267.53015201695564
20
-151.74539858640452
10
267.53015201695564
20
-115.30895898506627
10
284.72267162352421
20
-115.30895898506627
10
284.72267162352421
20
-151.74539858640452
0
LWPOLYLINE
5
139
100
AcDbEntity
8
0
100
AcDbPolyline
90
4
70
1
43
0.0
10
284.72267162352421
20
-163.09183372541776
10
284.72267162352421
20
-256.8996848043015
10
267.53015201695564
20
-256.8996848043015
10
267.53015201695564
20
-163.09183372541776
0
LWPOLYLINE
5
140
100
AcDbEntity
8
0
100
AcDbPolyline
90
4
70
1
43
0.0
10
314.69069605201327
20
-256.89968480430144
10
314.69069605201327
20
-220.00000000000006
10
333.00000496208668
20
-220.00000000000006
10
333.00000496208668
20
-256.8996848043015
0
LWPOLYLINE
5
141
100
AcDbEntity
8
0
100
AcDbPolyline
90
4
70
1
43
0.0
10
395.60632007147683
20
-66.751208725010457
10
46.985342023346988
20
-66.751208725010457
10
46.985342023346988
20
-277.03519973825746
10
395.60632007147683
20
-277.03519973825746
0
LWPOLYLINE
5
142
100
AcDbEntity
8
0
100
AcDbPolyline
90
4
70
1
43
0.0
10
351.42984846740524
20
-115.30895898506627
10
351.42984846740524
20
-151.74539858640452
10
296.3886716235242
20
-151.74539858640452
10
296.3886716235242
20
-115.30895898506627
0
LWPOLYLINE
5
143
100
AcDbEntity
8
0
100
AcDbPolyline
90
4
70
1
43
0.0
10
351.42984846740524
20
-104.60175962853276
10
296.3886716235242
20
-104.60175962853276
10
296.3886716235242
20
-86.751161071626356
10
351.42984846740524
20
-86.751161071626342
0
ENDSEC
0
SECTION
2
OBJECTS
0
DICTIONARY
5
C
100
AcDbDictionary
3
ACAD_GROUP
350
D
3
ACAD_MLINESTYLE
350
17
0
DICTIONARY
5
D
100
AcDbDictionary
0
DICTIONARY
5
1A
330
C
100
AcDbDictionary
0
DICTIONARY
5
17
100
AcDbDictionary
0
ENDSEC
0
EOF
